<svg width="1140" height="1024" xmlns="http://www.w3.org/2000/svg" preserveAspectRatio="xMidYMid meet" version="1.0">
 <metadata>Created by potrace 1.15, written by Peter Selinger 2001-2017</metadata>

 <g>
  <title>Layer 1</title>
  <g id="svg_1" fill="#607d8b" transform="translate(0 905) scale(0.1 -0.1)">
   <path fill="#ffffff" stroke="null" id="svg_2" d="m48.03538,7712.77966c-4.55194,-7.3141 -1.82078,-8.22836 8.19349,-4.57131c20.02854,7.3141 29.13241,-9.14262 14.56621,-26.5136c-9.10388,-10.97114 -8.19349,-11.88541 3.64155,-7.3141c10.01427,3.65705 18.20776,-4.57131 29.13241,-27.42786c8.19349,-17.37098 12.74543,-35.65622 10.01427,-41.14179c-3.64155,-4.57131 1.82078,-12.79967 10.01427,-18.28524c9.10388,-4.57131 22.7597,-23.77081 29.13241,-43.88458c7.2831,-19.1995 36.41552,-85.02637 65.54793,-146.28193c55.53367,-115.19702 172.06332,-391.30416 172.06332,-405.01809c0,-4.57131 5.46233,-21.94229 12.74543,-38.39901c31.86358,-74.05523 40.96746,-98.7403 64.63755,-167.30996c12.74543,-40.22753 27.31164,-79.5408 31.86358,-87.76916c3.64155,-7.3141 16.38698,-46.62736 27.31164,-86.85489c10.92466,-39.31327 22.7597,-75.88375 26.40125,-81.36932c3.64155,-4.57131 14.56621,-35.65622 22.7597,-68.56965c24.58047,-88.68342 68.2791,-238.6224 79.20375,-269.70731c5.46233,-14.62819 20.02854,-58.51277 31.86358,-95.99752c12.74543,-37.48474 44.60901,-113.36849 71.92065,-169.13848c47.34017,-96.91178 77.38298,-189.25224 77.38298,-234.96535c0,-11.88541 3.64155,-25.59934 7.2831,-31.08491c13.65582,-14.62819 31.86358,-87.76916 36.41552,-145.36767c13.65582,-159.0816 -2.73116,-338.27696 -48.25056,-502.84413c-18.20776,-68.56965 -24.58047,-95.99752 -49.16095,-210.28027c-10.01427,-50.28441 -24.58047,-114.28276 -32.77397,-141.71062c-7.2831,-27.42786 -31.86358,-124.33964 -54.62328,-214.85158c-100.14268,-400.44678 -130.18548,-499.18708 -253.08785,-854.83502c-53.71289,-153.59602 -65.54793,-183.76667 -127.45431,-330.0486c-70.09987,-163.65291 -85.57647,-245.02223 -65.54793,-340.10548c22.7597,-111.53997 82.8453,-212.1088 189.3607,-320.90598c14.56621,-14.62819 41.87785,-48.45589 61.90638,-74.96949c19.11815,-26.5136 39.14668,-51.19867 44.60901,-53.94146c5.46233,-3.65705 44.60901,-59.42703 87.39724,-123.42538c76.47259,-117.9398 125.63354,-209.36601 172.06332,-319.99172c68.2791,-164.56717 188.45031,-379.41875 257.63979,-464.44512c36.41552,-43.88458 111.06733,-164.56717 111.06733,-181.02389c0.91039,-4.57131 28.22203,-49.37015 61.90638,-98.7403c43.69862,-64.91261 71.01026,-95.99752 96.50112,-109.71145c20.02854,-10.97114 47.34017,-31.99917 61.90638,-48.45589c14.56621,-16.45672 60.99599,-52.11294 101.96345,-79.5408c41.87785,-28.34212 114.70888,-86.85489 161.13867,-131.65374c133.82703,-127.08243 172.97371,-159.99586 327.73967,-277.0214c80.11414,-59.42703 179.34643,-138.05357 220.31389,-173.70979c86.48686,-75.88375 141.11013,-105.14014 261.28134,-143.53914c71.01026,-21.94229 109.24656,-42.05605 213.94117,-111.53997c180.25682,-119.76833 199.37496,-127.99669 261.28134,-119.76833c83.75569,10.97114 143.8413,63.99834 167.51138,146.28193c17.29737,57.59851 8.19349,124.33964 -30.0428,215.76584c-11.83504,30.17065 -28.22203,85.94063 -35.50513,123.42538c-8.19349,44.79884 -29.13241,102.39735 -60.99599,164.56717c-45.5194,92.34047 -50.98173,98.7403 -138.37897,171.88127c-50.07134,42.05605 -110.15694,94.16899 -132.91664,117.02554l-42.78823,42.05605l-3.64155,93.25473c-2.73116,86.85489 -5.46233,95.99752 -38.23629,156.33881c-20.02854,35.65622 -59.17522,111.53997 -87.39724,169.13848c-29.13241,57.59851 -81.02453,149.02471 -115.61927,202.05191c-35.50513,53.0272 -71.01026,118.85407 -80.11414,146.28193c-22.7597,70.39818 -91.0388,228.56551 -137.46858,316.33467l-39.14668,74.05523l18.20776,154.51029c9.10388,84.11211 17.29737,166.39569 17.29737,181.93815l0,28.34212l348.67859,-3.65705c283.13066,-3.65705 350.49937,-1.82852 363.2448,7.3141c9.10388,8.22836 30.95319,68.56965 52.8025,149.93898c35.50513,127.99669 45.5194,159.0816 45.5194,134.39652c0,-5.48557 11.83504,-86.85489 27.31164,-181.93815c14.56621,-94.16899 29.13241,-188.33798 31.86358,-208.45175c2.73116,-20.11377 6.37272,-44.79884 9.10388,-54.85572c2.73116,-14.62819 84.66608,-533.01478 122.90237,-781.69405c96.50112,-623.52672 100.14268,-644.55475 119.26082,-660.0972c24.58047,-21.02803 38.23629,-21.02803 60.99599,0c18.20776,15.54245 24.58047,57.59851 42.78823,308.10631c2.73116,35.65622 9.10388,106.96866 13.65582,159.99586c4.55194,53.0272 12.74543,153.59602 18.20776,223.9942c5.46233,70.39818 15.4766,195.65208 22.7597,278.84993c7.2831,83.19785 17.29737,206.62322 22.7597,274.27862c5.46233,67.65539 15.4766,191.08077 22.7597,274.27862c7.2831,83.19785 17.29737,208.45175 22.7597,278.84993c5.46233,70.39818 13.65582,173.70979 19.11815,228.56551c10.01427,119.76833 13.65582,160.91012 26.40125,329.13434c5.46233,70.39818 13.65582,168.22422 19.11815,217.59437c4.55194,49.37015 8.19349,112.45423 9.10388,141.71062c0.91039,84.11211 13.65582,30.17065 25.49086,-103.31161c8.19349,-100.56883 24.58047,-282.50697 40.96746,-452.55972c2.73116,-22.85655 9.10388,-88.68342 14.56621,-146.28193c5.46233,-57.59851 15.4766,-162.73865 22.7597,-233.13682c7.2831,-70.39818 20.02854,-205.70896 28.22203,-301.70648c16.38698,-190.16651 20.93892,-210.28027 47.34017,-216.68011c42.78823,-11.88541 70.09987,17.37098 145.66207,150.85324c40.05707,71.31244 78.29336,140.79636 84.66608,154.51029l10.92466,25.59934l741.0558,0l740.14541,0l0,53.0272l0,52.11294l-75.5622,60.3413c-40.96746,33.8277 -168.42177,129.82521 -284.04104,213.93732c-253.99824,185.5952 -325.0085,245.02223 -424.24079,350.16237c-119.26082,126.16816 -172.97371,231.3083 -197.55419,384.90432c-23.67009,139.88209 5.46233,255.99337 91.0388,371.19039c85.57647,113.36849 225.77621,195.65208 388.73566,229.47977c99.23229,20.11377 249.4463,13.71393 346.85781,-14.62819c159.31789,-45.7131 302.2488,-153.59602 376.90062,-285.24976c19.11815,-34.74196 38.23629,-62.16982 40.96746,-62.16982c3.64155,0 21.84931,27.42786 41.87785,61.25556c70.09987,120.68259 183.89837,216.68011 314.99423,266.05026c330.47083,123.42538 711.013,-0.91426 847.57119,-278.84993l39.14668,-78.62654l0,-124.33964c0,-106.0544 -3.64155,-132.568 -20.93892,-183.76667c-65.54793,-184.68093 -187.53992,-315.42041 -542.59123,-578.72788c-110.15694,-81.36932 -250.35669,-189.25224 -313.17346,-239.53666l-113.7985,-91.42621l0,-50.28441l0,-50.28441l720.11688,-4.57131l721.02727,-4.57131l78.29336,-141.71062c85.57647,-154.51029 102.87384,-179.19536 136.55819,-185.5952c39.14668,-7.3141 56.44405,14.62819 62.81677,83.19785c2.73116,33.8277 10.92466,120.68259 18.20776,193.82355c7.2831,73.14096 17.29737,181.93815 22.7597,242.27944c5.46233,60.3413 13.65582,144.4534 18.20776,187.42372c4.55194,42.97032 12.74543,125.2539 18.20776,182.85241c4.55194,57.59851 14.56621,169.13848 22.7597,247.76502c7.2831,78.62654 15.4766,170.967 19.11815,205.70896c14.56621,170.967 17.29737,173.70979 29.13241,31.08491c18.20776,-202.05191 29.13241,-328.22008 47.34017,-566.84247c5.46233,-63.08408 15.4766,-183.76667 22.7597,-269.70731c7.2831,-85.02637 17.29737,-211.19453 22.7597,-278.84993c5.46233,-67.65539 15.4766,-191.08077 22.7597,-274.27862c7.2831,-83.19785 17.29737,-206.62322 22.7597,-274.27862c5.46233,-67.65539 13.65582,-170.967 18.20776,-228.56551c4.55194,-57.59851 10.92466,-131.65374 13.65582,-164.56717c2.73116,-32.91343 8.19349,-104.22587 13.65582,-159.99586c4.55194,-54.85572 12.74543,-161.82438 18.20776,-237.70813c5.46233,-74.96949 11.83504,-146.28193 14.56621,-157.25307c8.19349,-40.22753 74.65181,-50.28441 93.76996,-13.71393c4.55194,8.22836 10.01427,33.8277 12.74543,56.68425c2.73116,22.85655 18.20776,121.59685 33.68435,219.42289c15.4766,97.82604 32.77397,202.96618 37.32591,233.13682c4.55194,30.17065 13.65582,94.16899 20.93892,141.71062c7.2831,47.54163 16.38698,103.31161 19.11815,123.42538c2.73116,20.11377 6.37272,44.79884 9.10388,54.85572c2.73116,14.62819 42.78823,266.05026 81.93492,521.12937c4.55194,28.34212 17.29737,106.0544 31.86358,196.56634c4.55194,27.42786 17.29737,109.71145 28.22203,182.85241c10.92466,73.14096 22.7597,135.31078 26.40125,138.96783c2.73116,4.57131 20.93892,-53.0272 40.96746,-126.16816c28.22203,-107.88292 39.14668,-136.22505 56.44405,-147.19619c19.11815,-12.79967 65.54793,-13.71393 371.43829,-10.05688l350.49937,4.57131l0,-28.34212c0,-15.54245 8.19349,-97.82604 17.29737,-181.93815l18.20776,-154.51029l-39.14668,-74.05523c-46.42979,-87.76916 -114.70888,-245.93649 -137.46858,-316.33467c-9.10388,-27.42786 -44.60901,-93.25473 -80.11414,-146.28193c-34.59474,-53.0272 -86.48686,-144.4534 -115.61927,-202.05191c-28.22203,-57.59851 -67.36871,-133.48226 -87.39724,-169.13848c-32.77397,-60.3413 -35.50513,-69.48392 -38.23629,-156.33881l-3.64155,-93.25473l-42.78823,-42.05605c-22.7597,-22.85655 -82.8453,-74.96949 -132.91664,-117.02554c-87.39724,-73.14096 -92.85957,-79.5408 -138.37897,-171.88127c-31.86358,-62.16982 -52.8025,-119.76833 -60.99599,-164.56717c-7.2831,-37.48474 -23.67009,-93.25473 -35.50513,-123.42538c-38.23629,-91.42621 -47.34017,-158.16733 -30.0428,-215.76584c23.67009,-82.28358 83.75569,-135.31078 167.51138,-146.28193c61.90638,-8.22836 81.02453,0 261.28134,119.76833c104.69462,69.48392 142.93091,89.59768 213.94117,111.53997c120.17121,38.39901 174.79449,67.65539 261.28134,143.53914c40.96746,35.65622 140.19975,114.28276 220.31389,173.70979c154.76595,117.02554 193.91264,149.93898 327.73967,277.0214c46.42979,44.79884 119.26082,103.31161 161.13867,131.65374c40.96746,27.42786 87.39724,63.08408 101.96345,79.5408c14.56621,16.45672 41.87785,37.48474 61.90638,48.45589c25.49086,13.71393 52.8025,44.79884 96.50112,109.71145c33.68435,49.37015 60.99599,94.16899 61.90638,98.7403c0,16.45672 74.65181,137.13931 111.06733,181.02389c69.18949,85.02637 189.3607,299.87795 257.63979,464.44512c46.42979,110.62571 95.59074,202.05191 172.06332,319.99172c42.78823,63.99834 81.93492,119.76833 87.39724,123.42538c5.46233,2.74279 25.49086,27.42786 44.60901,53.94146c20.02854,26.5136 47.34017,60.3413 61.90638,74.96949c106.51539,108.79718 166.601,209.36601 189.3607,320.90598c20.02854,95.08325 4.55194,176.45258 -65.54793,340.10548c-61.90638,146.28193 -73.74142,176.45258 -127.45431,330.0486c-122.90237,355.64794 -152.94518,454.38824 -253.08785,854.83502c-22.7597,90.51194 -47.34017,187.42372 -54.62328,214.85158c-8.19349,27.42786 -22.7597,91.42621 -32.77397,141.71062c-24.58047,114.28276 -30.95319,141.71062 -49.16095,210.28027c-45.5194,164.56717 -61.90638,343.76253 -48.25056,502.84413c4.55194,57.59851 22.7597,130.73947 36.41552,146.28193c3.64155,4.57131 7.2831,18.28524 7.2831,30.17065c0,45.7131 30.0428,138.05357 77.38298,234.96535c27.31164,55.76999 59.17522,131.65374 71.92065,169.13848c11.83504,37.48474 26.40125,81.36932 31.86358,95.99752c10.92466,31.08491 54.62328,181.02389 79.20375,269.70731c8.19349,32.91343 19.11815,63.99834 22.7597,68.56965c3.64155,5.48557 15.4766,42.05605 26.40125,81.36932c10.92466,40.22753 23.67009,79.5408 27.31164,86.85489c4.55194,8.22836 19.11815,47.54163 31.86358,87.76916c23.67009,68.56965 32.77397,93.25473 64.63755,167.30996c7.2831,16.45672 12.74543,33.8277 12.74543,38.39901c0,13.71393 116.52966,289.82107 172.06332,405.01809c29.13241,61.25556 58.26483,127.08243 65.54793,146.28193c6.37272,20.11377 20.02854,39.31327 29.13241,43.88458c8.19349,5.48557 13.65582,13.71393 10.01427,18.28524c-2.73116,5.48557 1.82078,23.77081 10.01427,41.14179c10.92466,22.85655 19.11815,31.08491 29.13241,27.42786c11.83504,-4.57131 12.74543,-3.65705 3.64155,7.3141c-14.56621,17.37098 -5.46233,33.8277 14.56621,26.5136c10.01427,-3.65705 12.74543,-2.74279 8.19349,4.57131c-4.55194,8.22836 -233.96971,10.97114 -927.68533,10.97114l-921.31262,0l-43.69862,-212.1088c-92.85957,-448.90267 -144.75169,-650.95458 -258.55018,-1013.00235c-27.31164,-87.76916 -71.01026,-235.87961 -95.59074,-329.13434c-61.90638,-234.96535 -72.83104,-272.45009 -139.28936,-475.41627c-105.605,-324.56303 -176.61526,-513.81527 -223.04505,-594.27033c-118.35044,-206.62322 -137.46858,-428.7889 -71.92065,-831.97847c46.42979,-287.07828 134.73742,-525.70068 258.55018,-699.41047c69.18949,-96.91178 162.04906,-304.44926 216.67233,-484.55889c30.0428,-96.91178 42.78823,-179.19536 44.60901,-284.3355l1.82078,-108.79718l-326.82928,0l-325.91889,0l-62.81677,233.13682c-34.59474,127.99669 -70.09987,240.45092 -77.38298,249.59354c-8.19349,8.22836 -23.67009,15.54245 -35.50513,15.54245c-40.05707,0 -45.5194,-13.71393 -72.83104,-191.99503c-8.19349,-51.19867 -22.7597,-144.4534 -30.95319,-191.99503c-4.55194,-27.42786 -31.86358,-198.39487 -59.17522,-379.41875c-28.22203,-181.02389 -52.8025,-337.3627 -54.62328,-347.41958c-2.73116,-10.05688 -6.37272,-32.91343 -8.19349,-50.28441c-28.22203,-191.99503 -83.75569,-530.27199 -87.39724,-530.27199c-5.46233,0 -10.92466,61.25556 -36.41552,374.84744c-4.55194,57.59851 -12.74543,156.33881 -18.20776,219.42289c-5.46233,63.08408 -11.83504,140.79636 -14.56621,173.70979c-1.82078,32.91343 -8.19349,105.14014 -12.74543,159.99586c-12.74543,155.42455 -27.31164,322.7345 -31.86358,388.56137c-2.73116,32.91343 -8.19349,105.14014 -13.65582,159.99586c-4.55194,55.76999 -12.74543,158.16733 -18.20776,228.56551c-5.46233,70.39818 -15.4766,195.65208 -22.7597,278.84993c-7.2831,83.19785 -17.29737,204.7947 -22.7597,269.70731c-40.96746,514.72953 -51.89211,625.35524 -64.63755,640.8977c-16.38698,20.11377 -60.08561,15.54245 -75.5622,-7.3141c-6.37272,-11.88541 -15.4766,-55.76999 -18.20776,-98.7403c-3.64155,-42.97032 -11.83504,-133.48226 -19.11815,-201.13765c-6.37272,-67.65539 -17.29737,-174.62405 -22.7597,-237.70813c-5.46233,-63.08408 -13.65582,-150.85324 -18.20776,-196.56634c-4.55194,-44.79884 -10.92466,-108.79718 -13.65582,-141.71062c-2.73116,-32.91343 -9.10388,-98.7403 -13.65582,-146.28193c-7.2831,-74.96949 -20.02854,-209.36601 -31.86358,-333.70565c-8.19349,-89.59768 -24.58047,-254.16485 -31.86358,-333.70565c-5.46233,-47.54163 -11.83504,-119.76833 -14.56621,-159.99586c-3.64155,-40.22753 -6.37272,-74.05523 -8.19349,-75.88375c-0.91039,-0.91426 -27.31164,43.88458 -59.17522,100.56883c-30.95319,56.68425 -60.08561,107.88292 -64.63755,112.45423c-6.37272,5.48557 -250.35669,10.97114 -680.05981,13.71393l-670.95593,4.57131l289.50337,217.59437c380.54217,286.16402 500.71338,402.2753 588.11062,565.92821c54.62328,100.56883 73.74142,182.85241 73.74142,309.93484c0,167.30996 -37.32591,261.47895 -152.03479,383.0758c-105.605,113.36849 -233.05932,181.93815 -406.03303,220.33715c-109.24656,24.68508 -291.32415,20.11377 -402.39148,-9.14262c-135.64781,-35.65622 -282.22027,-121.59685 -362.33441,-210.28027l-31.86358,-35.65622l-53.71289,52.11294c-305.89036,297.13517 -847.57119,294.39238 -1145.26806,-6.39983c-163.86983,-166.39569 -209.38923,-393.13268 -126.54393,-625.35524c75.5622,-208.45175 223.04505,-365.70482 599.03528,-637.24065c64.63755,-46.62736 161.13867,-117.9398 213.03078,-157.25307l95.59074,-72.2267l-682.79097,0c-637.27157,0 -684.61175,-0.91426 -702.81951,-15.54245c-10.01427,-9.14262 -43.69862,-61.25556 -72.83104,-116.11128l-53.71289,-99.65456l-5.46233,40.22753c-2.73116,21.94229 -7.2831,63.08408 -10.01427,90.51194c-2.73116,27.42786 -10.92466,116.11128 -18.20776,196.56634c-7.2831,80.45506 -18.20776,193.82355 -22.7597,251.42206c-5.46233,57.59851 -13.65582,139.88209 -18.20776,182.85241c-4.55194,42.97032 -12.74543,127.08243 -18.20776,187.42372c-5.46233,60.3413 -13.65582,149.02471 -18.20776,196.56634c-4.55194,47.54163 -10.92466,113.36849 -13.65582,146.28193c-2.73116,32.91343 -9.10388,96.91178 -13.65582,141.71062c-4.55194,45.7131 -12.74543,133.48226 -18.20776,196.56634c-5.46233,63.08408 -13.65582,149.02471 -19.11815,191.99503c-4.55194,42.97032 -8.19349,82.28358 -8.19349,88.68342c0,17.37098 -27.31164,39.31327 -50.07134,39.31327c-47.34017,0 -46.42979,3.65705 -77.38298,-374.84744c-4.55194,-57.59851 -14.56621,-177.36684 -21.84931,-265.13599c-8.19349,-87.76916 -18.20776,-217.59437 -23.67009,-287.99255c-5.46233,-70.39818 -15.4766,-193.82355 -22.7597,-274.27862c-6.37272,-80.45506 -17.29737,-203.88044 -22.7597,-274.27862c-5.46233,-70.39818 -15.4766,-195.65208 -22.7597,-278.84993c-7.2831,-83.19785 -17.29737,-206.62322 -22.7597,-274.27862c-5.46233,-67.65539 -13.65582,-168.22422 -18.20776,-223.9942c-4.55194,-54.85572 -10.92466,-127.08243 -12.74543,-159.99586c-16.38698,-213.93732 -42.78823,-506.50118 -45.5194,-510.15822c-1.82078,-0.91426 -8.19349,29.25639 -13.65582,68.56965c-16.38698,103.31161 -65.54793,415.98923 -82.8453,525.70068c-5.46233,31.99917 -10.92466,70.39818 -13.65582,85.02637c-1.82078,15.54245 -20.93892,134.39652 -41.87785,265.13599c-20.02854,130.73947 -40.05707,260.56468 -44.60901,287.99255c-4.55194,27.42786 -14.56621,91.42621 -22.7597,141.71062c-7.2831,50.28441 -18.20776,117.9398 -22.7597,150.85324c-26.40125,173.70979 -30.0428,182.85241 -73.74142,182.85241c-17.29737,0 -30.0428,-7.3141 -38.23629,-20.11377c-7.2831,-11.88541 -40.96746,-125.2539 -74.65181,-252.33633l-62.81677,-230.39404l-318.63579,1.82852l-318.63579,2.74279l1.82078,108.79718c1.82078,105.14014 14.56621,187.42372 44.60901,284.3355c54.62328,180.10962 147.48285,387.64711 216.67233,484.55889c123.81276,173.70979 212.1204,412.33219 258.55018,699.41047c65.54793,403.18956 46.42979,625.35524 -71.92065,831.97847c-46.42979,80.45506 -117.44005,269.70731 -223.04505,594.27033c-66.45832,202.96618 -77.38298,240.45092 -139.28936,475.41627c-24.58047,93.25473 -68.2791,241.36518 -95.59074,329.13434c-113.7985,362.04777 -165.69061,564.09969 -258.55018,1013.00235l-43.69862,212.1088l-921.31262,0c-693.71563,0 -923.13339,-2.74279 -927.68533,-10.97114z"/>
   <path fill="#ffffff" stroke="null" id="svg_3" d="m2484.23356,1625.62292c5.46233,-10.05688 11.83504,-18.28524 14.56621,-18.28524c1.82078,0 0,8.22836 -5.46233,18.28524c-5.46233,10.05688 -11.83504,18.28524 -14.56621,18.28524c-1.82078,0 0,-8.22836 5.46233,-18.28524z"/>
   <path fill="#ffffff" stroke="null" id="svg_4" d="m9048.13077,1625.62292c-5.46233,-10.05688 -7.2831,-18.28524 -5.46233,-18.28524c2.73116,0 9.10388,8.22836 14.56621,18.28524c5.46233,10.05688 7.2831,18.28524 5.46233,18.28524c-2.73116,0 -9.10388,-8.22836 -14.56621,-18.28524z"/>
  </g>
 </g>
</svg>