<svg width="1280" height="905" xmlns="http://www.w3.org/2000/svg" preserveAspectRatio="xMidYMid meet" version="1.0">
 <metadata>Created by potrace 1.15, written by Peter Selinger 2001-2017</metadata>

 <g>
  <title>Layer 1</title>
  <g id="svg_1" fill="#607d8b" transform="translate(0 905) scale(0.1 -0.1)">
   <path fill="#a92570" id="svg_2" d="m114,9038c-5,-8 -2,-9 9,-5c22,8 32,-10 16,-29c-10,-12 -9,-13 4,-8c11,4 20,-5 32,-30c9,-19 14,-39 11,-45c-4,-5 2,-14 11,-20c10,-5 25,-26 32,-48c8,-21 40,-93 72,-160c61,-126 189,-428 189,-443c0,-5 6,-24 14,-42c35,-81 45,-108 71,-183c14,-44 30,-87 35,-96c4,-8 18,-51 30,-95c12,-43 25,-83 29,-89c4,-5 16,-39 25,-75c27,-97 75,-261 87,-295c6,-16 22,-64 35,-105c14,-41 49,-124 79,-185c52,-106 85,-207 85,-257c0,-13 4,-28 8,-34c15,-16 35,-96 40,-159c15,-174 -3,-370 -53,-550c-20,-75 -27,-105 -54,-230c-11,-55 -27,-125 -36,-155c-8,-30 -35,-136 -60,-235c-110,-438 -143,-546 -278,-935c-59,-168 -72,-201 -140,-361c-77,-179 -94,-268 -72,-372c25,-122 91,-232 208,-351c16,-16 46,-53 68,-82c21,-29 43,-56 49,-59c6,-4 49,-65 96,-135c84,-129 138,-229 189,-350c75,-180 207,-415 283,-508c40,-48 122,-180 122,-198c1,-5 31,-54 68,-108c48,-71 78,-105 106,-120c22,-12 52,-35 68,-53c16,-18 67,-57 112,-87c46,-31 126,-95 177,-144c147,-139 190,-175 360,-303c88,-65 197,-151 242,-190c95,-83 155,-115 287,-157c78,-24 120,-46 235,-122c198,-131 219,-140 287,-131c92,12 158,70 184,160c19,63 9,136 -33,236c-13,33 -31,94 -39,135c-9,49 -32,112 -67,180c-50,101 -56,108 -152,188c-55,46 -121,103 -146,128l-47,46l-4,102c-3,95 -6,105 -42,171c-22,39 -65,122 -96,185c-32,63 -89,163 -127,221c-39,58 -78,130 -88,160c-25,77 -100,250 -151,346l-43,81l20,169c10,92 19,182 19,199l0,31l383,-4c311,-4 385,-2 399,8c10,9 34,75 58,164c39,140 50,174 50,147c0,-6 13,-95 30,-199c16,-103 32,-206 35,-228c3,-22 7,-49 10,-60c3,-16 93,-583 135,-855c106,-682 110,-705 131,-722c27,-23 42,-23 67,0c20,17 27,63 47,337c3,39 10,117 15,175c5,58 14,168 20,245c6,77 17,214 25,305c8,91 19,226 25,300c6,74 17,209 25,300c8,91 19,228 25,305c6,77 15,190 21,250c11,131 15,176 29,360c6,77 15,184 21,238c5,54 9,123 10,155c1,92 15,33 28,-113c9,-110 27,-309 45,-495c3,-25 10,-97 16,-160c6,-63 17,-178 25,-255c8,-77 22,-225 31,-330c18,-208 23,-230 52,-237c47,-13 77,19 160,165c44,78 86,154 93,169l12,28l814,0l813,0l0,58l0,57l-83,66c-45,37 -185,142 -312,234c-279,203 -357,268 -466,383c-131,138 -190,253 -217,421c-26,153 6,280 100,406c94,124 248,214 427,251c109,22 274,15 381,-16c175,-50 332,-168 414,-312c21,-38 42,-68 45,-68c4,0 24,30 46,67c77,132 202,237 346,291c363,135 781,-1 931,-305l43,-86l0,-136c0,-116 -4,-145 -23,-201c-72,-202 -206,-345 -596,-633c-121,-89 -275,-207 -344,-262l-125,-100l0,-55l0,-55l791,-5l792,-5l86,-155c94,-169 113,-196 150,-203c43,-8 62,16 69,91c3,37 12,132 20,212c8,80 19,199 25,265c6,66 15,158 20,205c5,47 14,137 20,200c5,63 16,185 25,271c8,86 17,187 21,225c16,187 19,190 32,34c20,-221 32,-359 52,-620c6,-69 17,-201 25,-295c8,-93 19,-231 25,-305c6,-74 17,-209 25,-300c8,-91 19,-226 25,-300c6,-74 15,-187 20,-250c5,-63 12,-144 15,-180c3,-36 9,-114 15,-175c5,-60 14,-177 20,-260c6,-82 13,-160 16,-172c9,-44 82,-55 103,-15c5,9 11,37 14,62c3,25 20,133 37,240c17,107 36,222 41,255c5,33 15,103 23,155c8,52 18,113 21,135c3,22 7,49 10,60c3,16 47,291 90,570c5,31 19,116 35,215c5,30 19,120 31,200c12,80 25,148 29,152c3,5 23,-58 45,-138c31,-118 43,-149 62,-161c21,-14 72,-15 408,-11l385,5l0,-31c0,-17 9,-107 19,-199l20,-169l-43,-81c-51,-96 -126,-269 -151,-346c-10,-30 -49,-102 -88,-160c-38,-58 -95,-158 -127,-221c-31,-63 -74,-146 -96,-185c-36,-66 -39,-76 -42,-171l-4,-102l-47,-46c-25,-25 -91,-82 -146,-128c-96,-80 -102,-87 -152,-188c-35,-68 -58,-131 -67,-180c-8,-41 -26,-102 -39,-135c-42,-100 -52,-173 -33,-236c26,-90 92,-148 184,-160c68,-9 89,0 287,131c115,76 157,98 235,122c132,42 192,74 287,157c45,39 154,125 242,190c170,128 213,164 360,303c51,49 131,113 177,144c45,30 96,69 112,87c16,18 46,41 68,53c28,15 58,49 106,120c37,54 67,103 68,108c0,18 82,150 122,198c76,93 208,328 283,508c51,121 105,221 189,350c47,70 90,131 96,135c6,3 28,30 49,59c22,29 52,66 68,82c117,119 183,229 208,351c22,104 5,193 -72,372c-68,160 -81,193 -140,361c-135,389 -168,497 -278,935c-25,99 -52,205 -60,235c-9,30 -25,100 -36,155c-27,125 -34,155 -54,230c-50,180 -68,376 -53,550c5,63 25,143 40,160c4,5 8,20 8,33c0,50 33,151 85,257c30,61 65,144 79,185c13,41 29,89 35,105c12,34 60,198 87,295c9,36 21,70 25,75c4,6 17,46 29,89c12,44 26,87 30,95c5,9 21,52 35,96c26,75 36,102 71,183c8,18 14,37 14,42c0,15 128,317 189,443c32,67 64,139 72,160c7,22 22,43 32,48c9,6 15,15 11,20c-3,6 2,26 11,45c12,25 21,34 32,30c13,-5 14,-4 4,8c-16,19 -6,37 16,29c11,-4 14,-3 9,5c-5,9 -257,12 -1019,12l-1012,0l-48,-232c-102,-491 -159,-712 -284,-1108c-30,-96 -78,-258 -105,-360c-68,-257 -80,-298 -153,-520c-116,-355 -194,-562 -245,-650c-130,-226 -151,-469 -79,-910c51,-314 148,-575 284,-765c76,-106 178,-333 238,-530c33,-106 47,-196 49,-311l2,-119l-359,0l-358,0l-69,255c-38,140 -77,263 -85,273c-9,9 -26,17 -39,17c-44,0 -50,-15 -80,-210c-9,-56 -25,-158 -34,-210c-5,-30 -35,-217 -65,-415c-31,-198 -58,-369 -60,-380c-3,-11 -7,-36 -9,-55c-31,-210 -92,-580 -96,-580c-6,0 -12,67 -40,410c-5,63 -14,171 -20,240c-6,69 -13,154 -16,190c-2,36 -9,115 -14,175c-14,170 -30,353 -35,425c-3,36 -9,115 -15,175c-5,61 -14,173 -20,250c-6,77 -17,214 -25,305c-8,91 -19,224 -25,295c-45,563 -57,684 -71,701c-18,22 -66,17 -83,-8c-7,-13 -17,-61 -20,-108c-4,-47 -13,-146 -21,-220c-7,-74 -19,-191 -25,-260c-6,-69 -15,-165 -20,-215c-5,-49 -12,-119 -15,-155c-3,-36 -10,-108 -15,-160c-8,-82 -22,-229 -35,-365c-9,-98 -27,-278 -35,-365c-6,-52 -13,-131 -16,-175c-4,-44 -7,-81 -9,-83c-1,-1 -30,48 -65,110c-34,62 -66,118 -71,123c-7,6 -275,12 -747,15l-737,5l318,238c418,313 550,440 646,619c60,110 81,200 81,339c0,183 -41,286 -167,419c-116,124 -256,199 -446,241c-120,27 -320,22 -442,-10c-149,-39 -310,-133 -398,-230l-35,-39l-59,57c-336,325 -931,322 -1258,-7c-180,-182 -230,-430 -139,-684c83,-228 245,-400 658,-697c71,-51 177,-129 234,-172l105,-79l-750,0c-700,0 -752,-1 -772,-17c-11,-10 -48,-67 -80,-127l-59,-109l-6,44c-3,24 -8,69 -11,99c-3,30 -12,127 -20,215c-8,88 -20,212 -25,275c-6,63 -15,153 -20,200c-5,47 -14,139 -20,205c-6,66 -15,163 -20,215c-5,52 -12,124 -15,160c-3,36 -10,106 -15,155c-5,50 -14,146 -20,215c-6,69 -15,163 -21,210c-5,47 -9,90 -9,97c0,19 -30,43 -55,43c-52,0 -51,4 -85,-410c-5,-63 -16,-194 -24,-290c-9,-96 -20,-238 -26,-315c-6,-77 -17,-212 -25,-300c-7,-88 -19,-223 -25,-300c-6,-77 -17,-214 -25,-305c-8,-91 -19,-226 -25,-300c-6,-74 -15,-184 -20,-245c-5,-60 -12,-139 -14,-175c-18,-234 -47,-554 -50,-558c-2,-1 -9,32 -15,75c-18,113 -72,455 -91,575c-6,35 -12,77 -15,93c-2,17 -23,147 -46,290c-22,143 -44,285 -49,315c-5,30 -16,100 -25,155c-8,55 -20,129 -25,165c-29,190 -33,200 -81,200c-19,0 -33,-8 -42,-22c-8,-13 -45,-137 -82,-276l-69,-252l-350,2l-350,3l2,119c2,115 16,205 49,311c60,197 162,424 238,530c136,190 233,451 284,765c72,441 51,684 -79,910c-51,88 -129,295 -245,650c-73,222 -85,263 -153,520c-27,102 -75,264 -105,360c-125,396 -182,617 -284,1108l-48,232l-1012,0c-762,0 -1014,-3 -1019,-12z"/>
   <path fill="#a92570" id="svg_3" d="m2790,2380c6,-11 13,-20 16,-20c2,0 0,9 -6,20c-6,11 -13,20 -16,20c-2,0 0,-9 6,-20z"/>
   <path fill="#a92570" id="svg_4" d="m10000,2380c-6,-11 -8,-20 -6,-20c3,0 10,9 16,20c6,11 8,20 6,20c-3,0 -10,-9 -16,-20z"/>
  </g>
 </g>
</svg>